<?xml version="1.0" standalone="no"?>
<!DOCTYPE svg PUBLIC "-//W3C//DTD SVG 20010904//EN"
 "http://www.w3.org/TR/2001/REC-SVG-20010904/DTD/svg10.dtd">
<svg version="1.0" xmlns="http://www.w3.org/2000/svg"
 width="225.000000pt" height="225.000000pt" viewBox="0 0 225.000000 225.000000"
 preserveAspectRatio="xMidYMid meet">

<g transform="translate(0.000000,225.000000) scale(0.100000,-0.100000)"
fill="#000000" stroke="none">
<path d="M113 1833 c-16 -6 -17 -55 -1 -71 8 -8 61 -12 173 -12 142 0 164 -2
177 -17 9 -10 75 -210 147 -444 158 -513 156 -507 186 -539 l25 -26 -25 -48
c-29 -57 -31 -101 -10 -153 20 -48 41 -71 87 -94 87 -45 197 -7 244 83 19 36
18 121 -1 158 l-16 30 266 0 266 0 -16 -30 c-19 -37 -20 -122 -1 -158 47 -90
157 -128 244 -83 46 23 67 46 87 94 21 51 19 96 -8 150 l-24 46 30 29 c24 25
44 77 118 318 50 160 90 307 90 330 1 52 -21 96 -63 126 l-33 23 -716 3 -716
2 -32 104 c-54 177 -69 186 -303 185 -90 0 -169 -3 -175 -6z m1911 -383 c48
-18 44 -43 -48 -343 -48 -155 -94 -289 -102 -297 -13 -13 -82 -15 -504 -15
-427 0 -491 2 -505 15 -8 9 -51 137 -95 285 -44 149 -87 291 -95 318 l-14 47
669 0 c405 0 679 -4 694 -10z"/>
<path d="M1032 1211 c-8 -5 -12 -17 -10 -27 3 -18 20 -19 369 -22 328 -2 368
-1 380 14 11 14 10 18 -6 30 -15 11 -85 14 -369 14 -193 0 -357 -4 -364 -9z"/>
<path d="M1064 1005 c-3 -8 -3 -19 1 -25 4 -6 113 -10 324 -10 320 0 347 3
334 36 -8 21 -651 21 -659 -1z"/>
</g>
</svg>
